<svg xmlns="http://www.w3.org/2000/svg" width="1920" height="249" fill="none"><path fill="#000" d="M1563.46 171.32c23.04 0 34.56-9.216 34.56-22.752 0-14.688-8.07-24.768-54.72-24.768-51.27 0-72.87-14.688-72.87-43.2 0-33.696 32.84-57.6 89-57.6 66.24 0 89.28 35.712 92.45 70.272l-62.5 5.472c-2.3-10.656-10.66-19.584-32.26-19.584-19.58 0-31.96 7.776-31.96 19.584 0 17.568 19.29 19.872 61.34 19.872 53.28 0 66.24 17.568 66.24 44.064 0 33.984-31.39 64.8-86.69 64.8-67.39 0-92.45-37.152-95.33-78.624l58.18-6.048c1.73 16.128 9.5 28.512 34.56 28.512ZM1339.38 81.176h-61.92V25.88h178.56v55.296h-61.92V224.6h-54.72V81.176ZM1168.73 227.48c-53.28 0-100.8-34.56-100.8-102.24 0-67.68 49.54-102.24 101.38-102.24 62.49 0 93.02 44.064 96.19 73.728l-61.92 5.472c-3.46-9.216-15.55-21.6-36-21.6-23.04 0-43.49 15.552-43.49 44.64s20.45 44.64 44.07 44.64c21.88 0 33.98-14.976 36.28-25.632l61.64 2.592c-2.31 34.272-32.84 80.64-97.35 80.64ZM1054.96 25.88v56.16h-94.173v38.016h91.293v5.184h-91.293v43.2h94.173v56.16H903.188V25.88h151.772ZM774.956 31.064V25.88h110.88v132.768c0 42.336-26.497 68.832-73.729 68.832-30.816 0-55.872-10.656-72-23.616l42.912-42.912c4.32 4.032 13.824 10.368 25.057 10.368 15.264 0 23.039-7.2 23.039-21.888V31.064h-56.159Z"/><path fill="#000" d="M764.394 125.24c0 67.68-50.112 102.24-100.512 102.24S563.37 192.92 563.37 125.24C563.37 57.56 613.482 23 663.882 23s100.512 34.56 100.512 102.24Zm-56.16 0c0-29.088-20.448-44.64-44.352-44.64-23.904 0-44.352 15.552-44.352 44.64s20.448 44.64 44.352 44.64c23.904 0 44.352-15.552 44.352-44.64ZM439.001 224.6h-54.72V25.88h92.16c64.224 0 76.608 31.968 76.608 57.024 0 29.376-21.312 47.808-62.784 47.808v8.64c41.184 0 48.672 4.032 53.856 26.496l13.248 58.752h-56.16l-17.28-76.608c-2.304-9.792-9.216-10.368-20.736-10.368h-24.192V224.6Zm0-143.424v51.264h26.784c26.208 0 32.544-10.944 32.544-25.632 0-14.4-6.048-25.632-32.544-25.632h-26.784ZM258.72 224.6H204V25.88h96.192c53.28 0 72.576 26.208 72.576 56.736 0 35.712-30.24 55.008-72.576 55.008H258.72V224.6Zm0-92.16h26.784c26.208 0 32.544-10.656 32.544-25.632 0-14.688-6.048-25.632-32.544-25.632H258.72v51.264Z"/></svg>